<svg width="69" height="23" viewBox="0 0 69 23" fill="none" xmlns="http://www.w3.org/2000/svg">
<path d="M10.5054 20.6838C10.1205 21.3504 9.15828 21.3504 8.77338 20.6838L1.33429 7.79889C0.949392 7.13223 1.43052 6.29889 2.20032 6.29889L17.0785 6.2989C17.8483 6.2989 18.3294 7.13223 17.9445 7.7989L10.5054 20.6838Z" fill="#FB4168"/>
<circle cx="26.4586" cy="14.2413" r="7.94245" transform="rotate(-90 26.4586 14.2413)" fill="#FB4168"/>
<path d="M50.8583 10.4222C51.3195 10.1184 51.4516 9.49321 51.0922 9.07379C50.2371 8.07567 49.1439 7.30116 47.9072 6.82638C46.3579 6.23161 44.6612 6.13707 43.0555 6.55603C41.4497 6.975 40.0155 7.88642 38.9543 9.1623C37.8931 10.4382 37.2582 12.0144 37.1388 13.6696C37.0193 15.3249 37.4214 16.9759 38.2884 18.3909C39.1555 19.8059 40.444 20.9138 41.973 21.5589C43.502 22.2041 45.1946 22.3541 46.8132 21.9879C48.1053 21.6955 49.2984 21.086 50.288 20.221C50.7038 19.8575 50.6628 19.2198 50.25 18.8529L46.0348 15.1069C45.5433 14.6701 45.5998 13.886 46.1489 13.5243L50.8583 10.4222Z" fill="#FB4168"/>
<path d="M50.8583 10.4222C51.3195 10.1184 51.4516 9.4932 51.0923 9.07378C49.9521 7.74285 48.3962 6.81869 46.6613 6.46173C44.5981 6.0372 42.4507 6.44968 40.6916 7.60842C38.9324 8.76717 37.7057 10.5773 37.2811 12.6405C36.9242 14.3754 37.159 16.1698 37.9317 17.7428C38.1751 18.2385 38.8017 18.364 39.2629 18.0602L45.0606 14.2412L50.8583 10.4222Z" fill="#FB4168"/>
<path d="M54.4471 11.7074C53.9329 11.5058 53.346 11.7585 53.2106 12.2939C52.8232 13.8255 52.8997 15.4462 53.4428 16.9458C54.1 18.7605 55.3954 20.2738 57.0871 21.2029C58.7787 22.132 60.7508 22.4133 62.6348 21.9944C64.1917 21.6481 65.6004 20.8432 66.6851 19.6945C67.0643 19.293 66.9627 18.6621 66.5167 18.3363L63.9215 16.4407C63.4755 16.1149 62.8549 16.2339 62.3909 16.5335C62.1214 16.7075 61.8212 16.8341 61.5029 16.9049C60.8557 17.0488 60.1782 16.9522 59.597 16.633C59.0158 16.3138 58.5708 15.7939 58.345 15.1705C58.234 14.8639 58.1797 14.5426 58.182 14.2219C58.1859 13.6696 57.9534 13.082 57.4392 12.8804L54.4471 11.7074Z" fill="#FB4168"/>
<rect x="59.9453" y="0.997437" width="2.35268" height="3.64968" rx="1" transform="rotate(45 59.9453 0.997437)" fill="#FB4168"/>
<rect x="62.522" y="3.57812" width="1.40508" height="3.64968" rx="0.702538" transform="rotate(135 62.522 3.57812)" fill="#FB4168"/>
<path d="M67.8532 14.2413C68.4054 14.2413 68.8596 13.7918 68.7903 13.2439C68.7016 12.5436 68.5198 11.8567 68.2486 11.2018C67.8494 10.2382 67.2644 9.36264 66.5269 8.62512C65.7893 7.88759 64.9138 7.30256 63.9502 6.90341C62.9865 6.50427 61.9537 6.29883 60.9107 6.29883C59.8677 6.29883 58.8349 6.50427 57.8713 6.90341C56.9076 7.30256 56.0321 7.88759 55.2946 8.62512C54.557 9.36264 53.972 10.2382 53.5728 11.2018C53.3016 11.8567 53.1198 12.5436 53.0311 13.2439C52.9618 13.7918 53.416 14.2413 53.9683 14.2413L60.9107 14.2413L67.8532 14.2413Z" fill="#FB4168"/>
</svg>
